<?xml version="1.0" encoding="utf-8"?>
<!-- Generator: Adobe Illustrator 24.1.1, SVG Export Plug-In . SVG Version: 6.00 Build 0)  -->
<svg version="1.1" id="Layer_1" xmlns="http://www.w3.org/2000/svg" xmlns:xlink="http://www.w3.org/1999/xlink" x="0px" y="0px"
	 viewBox="0 0 512 512" style="enable-background:new 0 0 512 512;" xml:space="preserve">
<g>
	<path d="M170.7,21.3v143.6l-149.3,256V512h469.3v-91.1l-149.3-256V21.3h-42.7l0,155.1l149.3,256v36.9H64l0-36.9l149.3-256V21.3
		H170.7z M320,384v21.3c23.6,0,42.7-19.1,42.7-42.7c0-23.6-19.1-42.7-42.7-42.7c-23.6,0-42.7,19.1-42.7,42.7
		c0,23.6,19.1,42.7,42.7,42.7V384v-21.3l0,0v0v0V384z M192,426.7V448c23.6,0,42.7-19.1,42.7-42.7c0-23.6-19.1-42.7-42.7-42.7
		c-23.6,0-42.7,19.1-42.7,42.7c0,23.6,19.1,42.7,42.7,42.7V426.7v-21.3l0,0v0v0V426.7z M392.4,257.7c-29.3-12.6-53.9-18-75.4-18
		c-18.5,0-34.6,4.2-47.9,10.4c-20.1,9.3-34.3,21.8-46.9,30.2c-12.8,8.6-22.5,13.3-36.7,13.4c-11.1,0-26.3-3.3-47.9-14.1l-19.1,38.2
		c25.5,12.7,47.2,18.6,67,18.6c16.9,0.1,31.7-4.5,43.9-10.7c18.3-9.4,31.4-21.4,44.5-29.5c13.1-8.3,24.9-13.6,43.2-13.7
		c14.2,0,33,3.6,58.6,14.6L392.4,257.7L392.4,257.7z M128,42.7h256V0H128V42.7z"/>
</g>
</svg>
